<svg xmlns="http://www.w3.org/2000/svg" viewBox="0 0 260 200" width="260" height="200">
  <path d="M 16.0,172.0 L 16.0,133.5 L 17.9,130.6 L 19.8,127.5 L 21.7,124.4 L 23.7,121.1 L 25.6,117.8 L 27.5,114.3 L 29.4,110.8 L 31.3,107.2 L 33.2,103.6 L 35.2,99.9 L 37.1,96.2 L 39.0,92.4 L 40.9,88.7 L 42.8,85.0 L 44.7,81.4 L 46.7,77.8 L 48.6,74.3 L 50.5,71.0 L 52.4,67.7 L 54.3,64.6 L 56.2,61.6 L 58.2,58.8 L 60.1,56.2 L 62.0,53.9 L 63.9,51.7 L 65.8,49.8 L 67.7,48.1 L 69.6,46.8 L 71.6,45.6 L 73.5,44.8 L 75.4,44.3 L 77.3,44.0 L 79.2,44.0 L 81.1,44.1 L 83.1,44.2 L 85.0,44.4 L 86.9,44.6 L 88.8,44.9 L 90.7,45.2 L 92.6,45.6 L 94.6,46.1 L 96.5,46.6 L 98.4,47.1 L 100.3,47.7 L 102.2,48.4 L 104.1,49.1 L 106.1,49.8 L 108.0,50.6 L 109.9,51.5 L 111.8,52.4 L 113.7,53.3 L 115.6,54.3 L 117.5,55.3 L 118.0,55.5 L 118.0,172.0 Z" fill="#E2E8F0"/>
  <rect x="128" y="74.6" width="36" height="97.4" rx="6" fill="#5B8FF9"/>
  <rect x="172" y="111.0" width="36" height="61.0" rx="6" fill="#5AD8A6"/>
  <rect x="216" y="139.3" width="28" height="32.7" rx="6" fill="#6DC8EC"/>
  <rect x="12" y="172" width="236" height="6" rx="3" fill="#E2E8F0"/>
  <line x1="123" y1="22" x2="123" y2="170" stroke="#F6BD16" stroke-width="4" stroke-dasharray="8 6" stroke-linecap="round"/>
</svg>
