<svg xmlns="http://www.w3.org/2000/svg" viewBox="0 0 639 200" width="639" height="200">
  <path d="M 16.0,172.0 L 16.0,133.5 L 17.9,130.6 L 19.8,127.5 L 21.7,124.4 L 23.7,121.1 L 25.6,117.8 L 27.5,114.3 L 29.4,110.8 L 31.3,107.2 L 33.2,103.6 L 35.2,99.9 L 37.1,96.2 L 39.0,92.4 L 40.9,88.7 L 42.8,85.0 L 44.7,81.4 L 46.7,77.8 L 48.6,74.3 L 50.5,71.0 L 52.4,67.7 L 54.3,64.6 L 56.2,61.6 L 58.2,58.8 L 60.1,56.2 L 62.0,53.9 L 63.9,51.7 L 65.8,49.8 L 67.7,48.1 L 69.6,46.8 L 71.6,45.6 L 73.5,44.8 L 75.4,44.3 L 77.3,44.0 L 79.2,44.0 L 81.1,44.1 L 83.1,44.2 L 85.0,44.4 L 86.9,44.6 L 88.8,44.9 L 90.7,45.2 L 92.6,45.6 L 94.6,46.1 L 96.5,46.6 L 98.4,47.1 L 100.3,47.7 L 102.2,48.4 L 104.1,49.1 L 106.1,49.8 L 108.0,50.6 L 109.9,51.5 L 111.8,52.4 L 113.7,53.3 L 115.6,54.3 L 117.5,55.3 L 118.0,55.5 L 118.0,172.0 Z" fill="#E2E8F0"/>
  <rect x="128" y="74.6" width="36" height="97.4" rx="6" fill="#5B8FF9"/>
  <rect x="172" y="111.0" width="36" height="61.0" rx="6" fill="#5AD8A6"/>
  <rect x="216" y="139.3" width="28" height="32.7" rx="6" fill="#6DC8EC"/>
  <rect x="12" y="172" width="236" height="6" rx="3" fill="#E2E8F0"/>
  <line x1="123" y1="22" x2="123" y2="170" stroke="#F6BD16" stroke-width="4" stroke-dasharray="8 6" stroke-linecap="round"/>
  <g transform="translate(290,128) scale(1,-1)"><path d="M 40.6,0.0 L 34.8,0.0 L 30.0,12.6 L 11.0,12.6 L 6.5,0.0 L 0.7,0.0 L 17.9,44.8 L 23.3,44.8 L 40.6,0.0 Z M 28.3,17.3 L 21.2,36.4 Q 20.9,37.3 20.6,39.4 L 20.4,39.4 Q 20.1,37.5 19.7,36.4 L 12.8,17.3 L 28.3,17.3 Z M 72.3,0.0 L 67.2,0.0 L 67.2,5.1 L 67.1,5.1 Q 63.9,-0.8 57.2,-0.8 Q 45.8,-0.8 45.8,12.9 L 45.8,32.0 L 50.9,32.0 L 50.9,13.7 Q 50.9,3.6 58.6,3.6 Q 62.4,3.6 64.8,6.3 Q 67.2,9.1 67.2,13.6 L 67.2,32.0 L 72.3,32.0 L 72.3,0.0 Z M 97.5,0.3 Q 95.7,-0.7 92.8,-0.7 Q 84.3,-0.7 84.3,8.7 L 84.3,27.6 L 78.8,27.6 L 78.8,32.0 L 84.3,32.0 L 84.3,39.8 L 89.5,41.5 L 89.5,32.0 L 97.5,32.0 L 97.5,27.6 L 89.5,27.6 L 89.5,9.6 Q 89.5,6.4 90.6,5.0 Q 91.7,3.6 94.2,3.6 Q 96.1,3.6 97.5,4.7 L 97.5,0.3 Z M 117.3,-0.8 Q 110.2,-0.8 105.9,3.7 Q 101.7,8.2 101.7,15.6 Q 101.7,23.7 106.1,28.2 Q 110.5,32.8 118.0,32.8 Q 125.2,32.8 129.2,28.3 Q 133.2,23.9 133.2,16.1 Q 133.2,8.5 128.9,3.9 Q 124.5,-0.8 117.3,-0.8 Z M 117.6,28.4 Q 112.7,28.4 109.8,25.1 Q 107.0,21.7 107.0,15.8 Q 107.0,10.1 109.9,6.8 Q 112.8,3.6 117.6,3.6 Q 122.6,3.6 125.3,6.8 Q 128.0,10.0 128.0,15.9 Q 128.0,21.9 125.3,25.2 Q 122.6,28.4 117.6,28.4 Z" fill="#E2E8F0"/></g>
  <g transform="translate(427.2,128) scale(1,-1)"><path d="M 37.2,1.6 Q 32.3,-0.8 24.4,-0.8 Q 14.1,-0.8 8.2,5.3 Q 2.3,11.3 2.3,21.4 Q 2.3,32.2 9.0,38.9 Q 15.6,45.6 26.2,45.6 Q 32.8,45.6 37.2,43.9 L 37.2,34.2 Q 32.8,36.9 27.0,36.9 Q 20.7,36.9 16.8,32.9 Q 12.9,28.9 12.9,22.2 Q 12.9,15.7 16.6,11.8 Q 20.2,7.9 26.4,7.9 Q 32.3,7.9 37.2,10.8 L 37.2,1.6 Z M 70.7,0.0 L 61.4,0.0 L 61.4,4.6 L 61.2,4.6 Q 58.0,-0.8 51.7,-0.8 Q 47.1,-0.8 44.4,1.9 Q 41.7,4.5 41.7,8.9 Q 41.7,18.2 52.7,19.7 L 61.4,20.8 Q 61.4,26.1 55.7,26.1 Q 50.0,26.1 44.9,22.7 L 44.9,30.1 Q 46.9,31.2 50.5,32.0 Q 54.1,32.8 57.0,32.8 Q 70.7,32.8 70.7,19.1 L 70.7,0.0 Z M 61.4,13.0 L 61.4,15.2 L 55.6,14.4 Q 50.8,13.8 50.8,10.1 Q 50.8,8.4 52.0,7.3 Q 53.2,6.2 55.2,6.2 Q 57.9,6.2 59.7,8.1 Q 61.4,10.1 61.4,13.0 Z M 99.4,23.1 Q 97.6,24.1 95.3,24.1 Q 92.0,24.1 90.2,21.7 Q 88.4,19.3 88.4,15.3 L 88.4,0.0 L 78.5,0.0 L 78.5,32.0 L 88.4,32.0 L 88.4,26.1 L 88.5,26.1 Q 90.9,32.6 97.0,32.6 Q 98.5,32.6 99.4,32.2 L 99.4,23.1 Z M 137.0,32.0 L 125.1,0.0 L 113.9,0.0 L 102.5,32.0 L 113.1,32.0 L 118.7,12.3 Q 119.6,8.9 119.7,6.6 L 119.9,6.6 Q 120.1,8.8 121.0,12.1 L 126.7,32.0 L 137.0,32.0 Z M 169.4,13.2 L 148.5,13.2 Q 149.0,6.2 157.3,6.2 Q 162.5,6.2 166.5,8.7 L 166.5,1.6 Q 162.1,-0.8 155.0,-0.8 Q 147.3,-0.8 143.0,3.5 Q 138.7,7.8 138.7,15.5 Q 138.7,23.5 143.3,28.1 Q 148.0,32.8 154.7,32.8 Q 161.7,32.8 165.5,28.6 Q 169.4,24.5 169.4,17.3 L 169.4,13.2 Z M 160.2,19.2 Q 160.2,26.1 154.6,26.1 Q 152.3,26.1 150.5,24.2 Q 148.8,22.2 148.4,19.2 L 160.2,19.2 Z M 196.1,23.1 Q 194.3,24.1 192.0,24.1 Q 188.7,24.1 186.9,21.7 Q 185.1,19.3 185.1,15.3 L 185.1,0.0 L 175.2,0.0 L 175.2,32.0 L 185.1,32.0 L 185.1,26.1 L 185.2,26.1 Q 187.6,32.6 193.7,32.6 Q 195.2,32.6 196.1,32.2 L 196.1,23.1 Z" fill="#E2E8F0"/></g>
</svg>
