<?xml version="1.0" encoding="UTF-8"?>
<svg xmlns="http://www.w3.org/2000/svg" viewBox="0 0 800 490"
     width="800" height="490" role="img"
     aria-label="AutoCarver discretizer animation">
  <defs>
    <pattern id="nan-hatch" patternUnits="userSpaceOnUse" width="6" height="6"
             patternTransform="rotate(45)">
      <rect width="6" height="6" fill="#e5e7eb"/>
      <line x1="0" y1="0" x2="0" y2="6" stroke="#5D7092" stroke-width="1.2"/>
    </pattern>
    <marker id="arrowhead" viewBox="0 0 10 10" refX="9" refY="5"
            markerWidth="6" markerHeight="6" orient="auto-start-reverse">
      <path d="M 0 0 L 10 5 L 0 10 Z" fill="#f97316"/>
    </marker>
  </defs>
  <style>
text { font-family: -apple-system, "Segoe UI", "Helvetica Neue", Arial, sans-serif; }
.title { font-size: 14px; font-weight: 600; fill: #111827; }
.callout { font-size: 11px; fill: #4b5563; }
.chip { font-family: ui-monospace, "SF Mono", Menlo, monospace; font-size: 12px; fill: #f9fafb; }
.binlabel { font-size: 10px; fill: #374151; }
.binlabel-rot { font-family: ui-monospace, "SF Mono", Menlo, monospace; font-size: 10px; fill: #374151; }
.tick-label { font-family: ui-monospace, "SF Mono", Menlo, monospace; font-size: 9px; fill: #6b7280; }
.overrep-label { font-size: 11px; fill: #c2410c; font-weight: 600; }
.merge-label { font-size: 9px; fill: #c2410c; font-weight: 600; }
.strip-label { font-size: 9px; fill: #6b7280; font-style: italic; }
.threshold-label {
    font-family: ui-monospace, "SF Mono", Menlo, monospace;
    font-size: 10px; fill: #ef4444; font-weight: 600;
}

@keyframes show-0 {
  0% { opacity: 1; }
  15.17% { opacity: 1; }
  16.67% { opacity: 0; }
  100% { opacity: 0; }
}
.stage-0 { opacity: 0; animation: show-0 30000ms infinite; }
@keyframes show-1 {
  0% { opacity: 0; }
  16.67% { opacity: 0; }
  18.17% { opacity: 1; }
  31.83% { opacity: 1; }
  33.33% { opacity: 0; }
  100% { opacity: 0; }
}
.stage-1 { opacity: 0; animation: show-1 30000ms infinite; }
@keyframes show-2 {
  0% { opacity: 0; }
  33.33% { opacity: 0; }
  34.83% { opacity: 1; }
  48.50% { opacity: 1; }
  50.00% { opacity: 0; }
  100% { opacity: 0; }
}
.stage-2 { opacity: 0; animation: show-2 30000ms infinite; }
@keyframes show-3 {
  0% { opacity: 0; }
  50.00% { opacity: 0; }
  51.50% { opacity: 1; }
  65.17% { opacity: 1; }
  66.67% { opacity: 0; }
  100% { opacity: 0; }
}
.stage-3 { opacity: 0; animation: show-3 30000ms infinite; }
@keyframes show-4 {
  0% { opacity: 0; }
  66.67% { opacity: 0; }
  68.17% { opacity: 1; }
  100% { opacity: 1; }
}
.stage-4 { opacity: 0; animation: show-4 30000ms infinite; }
  </style>
  <g class="stage stage-0">
    <text class="title" x="400.00" y="29.00" text-anchor="middle">Stage 0 / 4 &#8212; Raw features</text>
    <rect x="658" y="12" width="110" height="22" rx="11" fill="#111827"/>
    <text class="chip" x="713.00" y="27.00" text-anchor="middle">—</text>
    <text class="callout" x="400.00" y="56.00" text-anchor="middle">Port (categorical, top) and AgeGroup (ordinal, bottom) in their raw state. Rare modalities are</text>
    <text class="callout" x="400.00" y="70.00" text-anchor="middle">outlined orange on both strips.</text>
    <g opacity="1.00">
    <path d="M 99.00,120.54 L 233.00,105.41 L 367.00,115.21 L 501.00,97.46 L 635.00,115.61" fill="none" stroke="#9ca3af" stroke-width="1" stroke-dasharray="2 3"/>
    <circle cx="99.00" cy="120.54" r="3.5" fill="#5B8FF9" stroke="#374151" stroke-width="0.6"/>
    <circle cx="233.00" cy="105.41" r="3.5" fill="#5AD8A6" stroke="#374151" stroke-width="0.6"/>
    <circle cx="367.00" cy="115.21" r="3.5" fill="#F6BD16" stroke="#374151" stroke-width="0.6"/>
    <circle cx="501.00" cy="97.46" r="3.5" fill="#E8684A" stroke="#374151" stroke-width="0.6"/>
    <circle cx="635.00" cy="115.61" r="3.5" fill="#6DC8EC" stroke="#374151" stroke-width="0.6"/>
    <text class="strip-label" x="32.00" y="96.00" text-anchor="start">target rate &#8712; [0.22, 0.84]</text>
    <rect x="32.50" y="137.28" width="133.00" height="60.72" rx="2" fill="#5B8FF9" stroke="#374151" stroke-width="0.6"/>
    <text class="binlabel-rot" x="99.00" y="206.00" text-anchor="end" transform="rotate(-45 99.00 206.00)">Southampton</text>
    <rect x="166.50" y="173.57" width="133.00" height="24.43" rx="2" fill="#5AD8A6" stroke="#374151" stroke-width="0.6"/>
    <text class="binlabel-rot" x="233.00" y="206.00" text-anchor="end" transform="rotate(-45 233.00 206.00)">Cherbourg</text>
    <rect x="300.50" y="182.10" width="133.00" height="15.90" rx="2" fill="#F6BD16" stroke="#374151" stroke-width="0.6"/>
    <text class="binlabel-rot" x="367.00" y="206.00" text-anchor="end" transform="rotate(-45 367.00 206.00)">Queenstown</text>
    <rect x="434.50" y="192.61" width="133.00" height="5.39" rx="2" fill="#E8684A" stroke="#f97316" stroke-width="2.0"/>
    <text class="binlabel-rot" x="501.00" y="206.00" text-anchor="end" transform="rotate(-45 501.00 206.00)">Belfast</text>
    <rect x="568.50" y="192.97" width="133.00" height="5.03" rx="2" fill="#6DC8EC" stroke="#f97316" stroke-width="2.0"/>
    <text class="binlabel-rot" x="635.00" y="206.00" text-anchor="end" transform="rotate(-45 635.00 206.00)">Boston</text>
    <rect x="712.00" y="174.74" width="56.00" height="23.26" rx="3" fill="url(#nan-hatch)" stroke="#5D7092" stroke-width="1" opacity="0.85"/>
    <text class="binlabel-rot" x="740.00" y="206.00" text-anchor="end" transform="rotate(-45 740.00 206.00)">NaN (17.3%)</text>
    <line x1="32" y1="198.00" x2="702" y2="198.00" stroke="#9ca3af" stroke-width="1"/>
    <line x1="32" y1="188.57" x2="768" y2="188.57" stroke="#ef4444" stroke-width="1" stroke-dasharray="5 3"/>
    <text class="threshold-label" x="764.00" y="184.57" text-anchor="end">min_freq = 0.07</text>
    </g>
    <line x1="32" y1="270.00" x2="768.00" y2="270.00" stroke="#d1d5db" stroke-width="1"/>
    <text class="strip-label" x="32" y="284.00" text-anchor="start">AgeGroup (ordinal)</text>
    <g opacity="1.00">
    <path d="M 99.00,322.54 L 233.00,303.87 L 367.00,313.64 L 501.00,309.36 L 635.00,299.46" fill="none" stroke="#9ca3af" stroke-width="1" stroke-dasharray="2 3"/>
    <circle cx="99.00" cy="322.54" r="3.5" fill="#5B8FF9" stroke="#374151" stroke-width="0.6"/>
    <circle cx="233.00" cy="303.87" r="3.5" fill="#5AD8A6" stroke="#374151" stroke-width="0.6"/>
    <circle cx="367.00" cy="313.64" r="3.5" fill="#F6BD16" stroke="#374151" stroke-width="0.6"/>
    <circle cx="501.00" cy="309.36" r="3.5" fill="#E8684A" stroke="#374151" stroke-width="0.6"/>
    <circle cx="635.00" cy="299.46" r="3.5" fill="#6DC8EC" stroke="#374151" stroke-width="0.6"/>
    <text class="strip-label" x="32.00" y="298.00" text-anchor="start">target rate &#8712; [0.02, 0.99]</text>
    <rect x="32.50" y="383.26" width="133.00" height="16.74" rx="2" fill="#5B8FF9" stroke="#374151" stroke-width="0.6"/>
    <text class="binlabel-rot" x="99.00" y="408.00" text-anchor="end" transform="rotate(-45 99.00 408.00)">child</text>
    <rect x="166.50" y="393.36" width="133.00" height="6.64" rx="2" fill="#5AD8A6" stroke="#f97316" stroke-width="2.0"/>
    <text class="binlabel-rot" x="233.00" y="408.00" text-anchor="end" transform="rotate(-45 233.00 408.00)">teen</text>
    <rect x="300.50" y="339.28" width="133.00" height="60.72" rx="2" fill="#F6BD16" stroke="#374151" stroke-width="0.6"/>
    <text class="binlabel-rot" x="367.00" y="408.00" text-anchor="end" transform="rotate(-45 367.00 408.00)">adult</text>
    <rect x="434.50" y="353.14" width="133.00" height="46.86" rx="2" fill="#E8684A" stroke="#374151" stroke-width="0.6"/>
    <text class="binlabel-rot" x="501.00" y="408.00" text-anchor="end" transform="rotate(-45 501.00 408.00)">middle_aged</text>
    <rect x="568.50" y="395.09" width="133.00" height="4.91" rx="2" fill="#6DC8EC" stroke="#f97316" stroke-width="2.0"/>
    <text class="binlabel-rot" x="635.00" y="408.00" text-anchor="end" transform="rotate(-45 635.00 408.00)">elderly</text>
    <rect x="712.00" y="391.53" width="56.00" height="8.47" rx="3" fill="url(#nan-hatch)" stroke="#5D7092" stroke-width="1" opacity="0.85"/>
    <text class="binlabel-rot" x="740.00" y="408.00" text-anchor="end" transform="rotate(-45 740.00 408.00)">NaN (5.9%)</text>
    <line x1="32" y1="400.00" x2="702" y2="400.00" stroke="#9ca3af" stroke-width="1"/>
    <line x1="32" y1="389.90" x2="768" y2="389.90" stroke="#ef4444" stroke-width="1" stroke-dasharray="5 3"/>
    <text class="threshold-label" x="764.00" y="385.90" text-anchor="end">min_freq = 0.07</text>
    </g>
  </g>
  <g class="stage stage-1">
    <text class="title" x="400.00" y="29.00" text-anchor="middle">Stage 1 / 4 &#8212; Rare modalities grouped</text>
    <rect x="658" y="12" width="110" height="22" rx="11" fill="#111827"/>
    <text class="chip" x="713.00" y="27.00" text-anchor="middle">—</text>
    <text class="callout" x="400.00" y="56.00" text-anchor="middle">CategoricalDiscretizer: rare Port modalities (Belfast, Boston) collapse into __OTHER__.</text>
    <text class="callout" x="400.00" y="70.00" text-anchor="middle">AgeGroup is unchanged (dimmed — not yet processed).</text>
    <g opacity="1.00">
    <path d="M 99.00,120.54 L 233.00,105.41 L 367.00,115.21 L 568.00,106.22" fill="none" stroke="#9ca3af" stroke-width="1" stroke-dasharray="2 3"/>
    <circle cx="99.00" cy="120.54" r="3.5" fill="#5B8FF9" stroke="#374151" stroke-width="0.6"/>
    <circle cx="233.00" cy="105.41" r="3.5" fill="#5AD8A6" stroke="#374151" stroke-width="0.6"/>
    <circle cx="367.00" cy="115.21" r="3.5" fill="#F6BD16" stroke="#374151" stroke-width="0.6"/>
    <circle cx="568.00" cy="106.22" r="3.5" fill="#cfd2d6" stroke="#374151" stroke-width="0.6"/>
    <text class="strip-label" x="32.00" y="96.00" text-anchor="start">target rate &#8712; [0.22, 0.84]</text>
    <rect x="32.50" y="137.28" width="133.00" height="60.72" rx="2" fill="#5B8FF9" stroke="#374151" stroke-width="0.6"/>
    <text class="binlabel-rot" x="99.00" y="206.00" text-anchor="end" transform="rotate(-45 99.00 206.00)">Southampton</text>
    <rect x="166.50" y="173.57" width="133.00" height="24.43" rx="2" fill="#5AD8A6" stroke="#374151" stroke-width="0.6"/>
    <text class="binlabel-rot" x="233.00" y="206.00" text-anchor="end" transform="rotate(-45 233.00 206.00)">Cherbourg</text>
    <rect x="300.50" y="182.10" width="133.00" height="15.90" rx="2" fill="#F6BD16" stroke="#374151" stroke-width="0.6"/>
    <text class="binlabel-rot" x="367.00" y="206.00" text-anchor="end" transform="rotate(-45 367.00 206.00)">Queenstown</text>
    <rect x="434.50" y="187.58" width="267.00" height="10.42" rx="2" fill="#cfd2d6" stroke="#374151" stroke-width="0.6"/>
    <text class="binlabel-rot" x="568.00" y="206.00" text-anchor="end" transform="rotate(-45 568.00 206.00)"><tspan x="568.00" dy="0">__OTHER__</tspan><tspan x="568.00" dy="11">(Belfast, Boston)</tspan></text>
    <rect x="712.00" y="174.74" width="56.00" height="23.26" rx="3" fill="url(#nan-hatch)" stroke="#5D7092" stroke-width="1" opacity="0.85"/>
    <text class="binlabel-rot" x="740.00" y="206.00" text-anchor="end" transform="rotate(-45 740.00 206.00)">NaN (17.3%)</text>
    <line x1="32" y1="198.00" x2="702" y2="198.00" stroke="#9ca3af" stroke-width="1"/>
    <line x1="32" y1="188.57" x2="768" y2="188.57" stroke="#ef4444" stroke-width="1" stroke-dasharray="5 3"/>
    <text class="threshold-label" x="764.00" y="184.57" text-anchor="end">min_freq = 0.07</text>
    </g>
    <line x1="32" y1="270.00" x2="768.00" y2="270.00" stroke="#d1d5db" stroke-width="1"/>
    <text class="strip-label" x="32" y="284.00" text-anchor="start">AgeGroup (ordinal)</text>
    <g opacity="0.60">
    <path d="M 99.00,322.54 L 233.00,303.87 L 367.00,313.64 L 501.00,309.36 L 635.00,299.46" fill="none" stroke="#9ca3af" stroke-width="1" stroke-dasharray="2 3"/>
    <circle cx="99.00" cy="322.54" r="3.5" fill="#5B8FF9" stroke="#374151" stroke-width="0.6"/>
    <circle cx="233.00" cy="303.87" r="3.5" fill="#5AD8A6" stroke="#374151" stroke-width="0.6"/>
    <circle cx="367.00" cy="313.64" r="3.5" fill="#F6BD16" stroke="#374151" stroke-width="0.6"/>
    <circle cx="501.00" cy="309.36" r="3.5" fill="#E8684A" stroke="#374151" stroke-width="0.6"/>
    <circle cx="635.00" cy="299.46" r="3.5" fill="#6DC8EC" stroke="#374151" stroke-width="0.6"/>
    <text class="strip-label" x="32.00" y="298.00" text-anchor="start">target rate &#8712; [0.02, 0.99]</text>
    <rect x="32.50" y="383.26" width="133.00" height="16.74" rx="2" fill="#5B8FF9" stroke="#374151" stroke-width="0.6"/>
    <text class="binlabel-rot" x="99.00" y="408.00" text-anchor="end" transform="rotate(-45 99.00 408.00)">child</text>
    <rect x="166.50" y="393.36" width="133.00" height="6.64" rx="2" fill="#5AD8A6" stroke="#f97316" stroke-width="2.0"/>
    <text class="binlabel-rot" x="233.00" y="408.00" text-anchor="end" transform="rotate(-45 233.00 408.00)">teen</text>
    <rect x="300.50" y="339.28" width="133.00" height="60.72" rx="2" fill="#F6BD16" stroke="#374151" stroke-width="0.6"/>
    <text class="binlabel-rot" x="367.00" y="408.00" text-anchor="end" transform="rotate(-45 367.00 408.00)">adult</text>
    <rect x="434.50" y="353.14" width="133.00" height="46.86" rx="2" fill="#E8684A" stroke="#374151" stroke-width="0.6"/>
    <text class="binlabel-rot" x="501.00" y="408.00" text-anchor="end" transform="rotate(-45 501.00 408.00)">middle_aged</text>
    <rect x="568.50" y="395.09" width="133.00" height="4.91" rx="2" fill="#6DC8EC" stroke="#f97316" stroke-width="2.0"/>
    <text class="binlabel-rot" x="635.00" y="408.00" text-anchor="end" transform="rotate(-45 635.00 408.00)">elderly</text>
    <rect x="712.00" y="391.53" width="56.00" height="8.47" rx="3" fill="url(#nan-hatch)" stroke="#5D7092" stroke-width="1" opacity="0.85"/>
    <text class="binlabel-rot" x="740.00" y="408.00" text-anchor="end" transform="rotate(-45 740.00 408.00)">NaN (5.9%)</text>
    <line x1="32" y1="400.00" x2="702" y2="400.00" stroke="#9ca3af" stroke-width="1"/>
    <line x1="32" y1="389.90" x2="768" y2="389.90" stroke="#ef4444" stroke-width="1" stroke-dasharray="5 3"/>
    <text class="threshold-label" x="764.00" y="385.90" text-anchor="end">min_freq = 0.07</text>
    </g>
  </g>
  <g class="stage stage-2">
    <text class="title" x="400.00" y="29.00" text-anchor="middle">Stage 2 / 4 &#8212; After CategoricalDiscretizer</text>
    <rect x="658" y="12" width="110" height="22" rx="11" fill="#111827"/>
    <text class="chip" x="713.00" y="27.00" text-anchor="middle">—</text>
    <text class="callout" x="400.00" y="56.00" text-anchor="middle">Port bars reordered by ascending P(y=1) — dot trace is now monotonic. AgeGroup still unchanged.</text>
    <g opacity="1.00">
    <path d="M 115.75,120.54 L 283.25,115.21 L 450.75,106.22 L 618.25,105.41" fill="none" stroke="#9ca3af" stroke-width="1" stroke-dasharray="2 3"/>
    <circle cx="115.75" cy="120.54" r="3.5" fill="#5B8FF9" stroke="#374151" stroke-width="0.6"/>
    <circle cx="283.25" cy="115.21" r="3.5" fill="#F6BD16" stroke="#374151" stroke-width="0.6"/>
    <circle cx="450.75" cy="106.22" r="3.5" fill="#cfd2d6" stroke="#374151" stroke-width="0.6"/>
    <circle cx="618.25" cy="105.41" r="3.5" fill="#5AD8A6" stroke="#374151" stroke-width="0.6"/>
    <text class="strip-label" x="32.00" y="96.00" text-anchor="start">target rate &#8712; [0.22, 0.84]</text>
    <rect x="32.50" y="137.28" width="166.50" height="60.72" rx="2" fill="#5B8FF9" stroke="#374151" stroke-width="0.6"/>
    <text class="binlabel-rot" x="115.75" y="206.00" text-anchor="end" transform="rotate(-45 115.75 206.00)">Southampton</text>
    <rect x="200.00" y="182.10" width="166.50" height="15.90" rx="2" fill="#F6BD16" stroke="#374151" stroke-width="0.6"/>
    <text class="binlabel-rot" x="283.25" y="206.00" text-anchor="end" transform="rotate(-45 283.25 206.00)">Queenstown</text>
    <rect x="367.50" y="187.58" width="166.50" height="10.42" rx="2" fill="#cfd2d6" stroke="#374151" stroke-width="0.6"/>
    <text class="binlabel-rot" x="450.75" y="206.00" text-anchor="end" transform="rotate(-45 450.75 206.00)"><tspan x="450.75" dy="0">__OTHER__</tspan><tspan x="450.75" dy="11">(Belfast, Boston)</tspan></text>
    <rect x="535.00" y="173.57" width="166.50" height="24.43" rx="2" fill="#5AD8A6" stroke="#374151" stroke-width="0.6"/>
    <text class="binlabel-rot" x="618.25" y="206.00" text-anchor="end" transform="rotate(-45 618.25 206.00)">Cherbourg</text>
    <rect x="712.00" y="174.74" width="56.00" height="23.26" rx="3" fill="url(#nan-hatch)" stroke="#5D7092" stroke-width="1" opacity="0.85"/>
    <text class="binlabel-rot" x="740.00" y="206.00" text-anchor="end" transform="rotate(-45 740.00 206.00)">NaN (17.3%)</text>
    <line x1="32" y1="198.00" x2="702" y2="198.00" stroke="#9ca3af" stroke-width="1"/>
    <line x1="32" y1="188.57" x2="768" y2="188.57" stroke="#ef4444" stroke-width="1" stroke-dasharray="5 3"/>
    <text class="threshold-label" x="764.00" y="184.57" text-anchor="end">min_freq = 0.07</text>
    </g>
    <line x1="32" y1="270.00" x2="768.00" y2="270.00" stroke="#d1d5db" stroke-width="1"/>
    <text class="strip-label" x="32" y="284.00" text-anchor="start">AgeGroup (ordinal)</text>
    <g opacity="0.60">
    <path d="M 99.00,322.54 L 233.00,303.87 L 367.00,313.64 L 501.00,309.36 L 635.00,299.46" fill="none" stroke="#9ca3af" stroke-width="1" stroke-dasharray="2 3"/>
    <circle cx="99.00" cy="322.54" r="3.5" fill="#5B8FF9" stroke="#374151" stroke-width="0.6"/>
    <circle cx="233.00" cy="303.87" r="3.5" fill="#5AD8A6" stroke="#374151" stroke-width="0.6"/>
    <circle cx="367.00" cy="313.64" r="3.5" fill="#F6BD16" stroke="#374151" stroke-width="0.6"/>
    <circle cx="501.00" cy="309.36" r="3.5" fill="#E8684A" stroke="#374151" stroke-width="0.6"/>
    <circle cx="635.00" cy="299.46" r="3.5" fill="#6DC8EC" stroke="#374151" stroke-width="0.6"/>
    <text class="strip-label" x="32.00" y="298.00" text-anchor="start">target rate &#8712; [0.02, 0.99]</text>
    <rect x="32.50" y="383.26" width="133.00" height="16.74" rx="2" fill="#5B8FF9" stroke="#374151" stroke-width="0.6"/>
    <text class="binlabel-rot" x="99.00" y="408.00" text-anchor="end" transform="rotate(-45 99.00 408.00)">child</text>
    <rect x="166.50" y="393.36" width="133.00" height="6.64" rx="2" fill="#5AD8A6" stroke="#f97316" stroke-width="2.0"/>
    <text class="binlabel-rot" x="233.00" y="408.00" text-anchor="end" transform="rotate(-45 233.00 408.00)">teen</text>
    <rect x="300.50" y="339.28" width="133.00" height="60.72" rx="2" fill="#F6BD16" stroke="#374151" stroke-width="0.6"/>
    <text class="binlabel-rot" x="367.00" y="408.00" text-anchor="end" transform="rotate(-45 367.00 408.00)">adult</text>
    <rect x="434.50" y="353.14" width="133.00" height="46.86" rx="2" fill="#E8684A" stroke="#374151" stroke-width="0.6"/>
    <text class="binlabel-rot" x="501.00" y="408.00" text-anchor="end" transform="rotate(-45 501.00 408.00)">middle_aged</text>
    <rect x="568.50" y="395.09" width="133.00" height="4.91" rx="2" fill="#6DC8EC" stroke="#f97316" stroke-width="2.0"/>
    <text class="binlabel-rot" x="635.00" y="408.00" text-anchor="end" transform="rotate(-45 635.00 408.00)">elderly</text>
    <rect x="712.00" y="391.53" width="56.00" height="8.47" rx="3" fill="url(#nan-hatch)" stroke="#5D7092" stroke-width="1" opacity="0.85"/>
    <text class="binlabel-rot" x="740.00" y="408.00" text-anchor="end" transform="rotate(-45 740.00 408.00)">NaN (5.9%)</text>
    <line x1="32" y1="400.00" x2="702" y2="400.00" stroke="#9ca3af" stroke-width="1"/>
    <line x1="32" y1="389.90" x2="768" y2="389.90" stroke="#ef4444" stroke-width="1" stroke-dasharray="5 3"/>
    <text class="threshold-label" x="764.00" y="385.90" text-anchor="end">min_freq = 0.07</text>
    </g>
  </g>
  <g class="stage stage-3">
    <text class="title" x="400.00" y="29.00" text-anchor="middle">Stage 3 / 4 &#8212; OrdinalDiscretizer — merge direction</text>
    <rect x="658" y="12" width="110" height="22" rx="11" fill="#111827"/>
    <text class="chip" x="713.00" y="27.00" text-anchor="middle">—</text>
    <text class="callout" x="400.00" y="56.00" text-anchor="middle">OrdinalDiscretizer: each rare AgeGroup modality merges with the adjacent neighbour whose</text>
    <text class="callout" x="400.00" y="70.00" text-anchor="middle">target rate is closest. Port is already done.</text>
    <g opacity="1.00">
    <path d="M 115.75,120.54 L 283.25,115.21 L 450.75,106.22 L 618.25,105.41" fill="none" stroke="#9ca3af" stroke-width="1" stroke-dasharray="2 3"/>
    <circle cx="115.75" cy="120.54" r="3.5" fill="#5B8FF9" stroke="#374151" stroke-width="0.6"/>
    <circle cx="283.25" cy="115.21" r="3.5" fill="#F6BD16" stroke="#374151" stroke-width="0.6"/>
    <circle cx="450.75" cy="106.22" r="3.5" fill="#cfd2d6" stroke="#374151" stroke-width="0.6"/>
    <circle cx="618.25" cy="105.41" r="3.5" fill="#5AD8A6" stroke="#374151" stroke-width="0.6"/>
    <text class="strip-label" x="32.00" y="96.00" text-anchor="start">target rate &#8712; [0.22, 0.84]</text>
    <rect x="32.50" y="137.28" width="166.50" height="60.72" rx="2" fill="#5B8FF9" stroke="#374151" stroke-width="0.6"/>
    <text class="binlabel-rot" x="115.75" y="206.00" text-anchor="end" transform="rotate(-45 115.75 206.00)">Southampton</text>
    <rect x="200.00" y="182.10" width="166.50" height="15.90" rx="2" fill="#F6BD16" stroke="#374151" stroke-width="0.6"/>
    <text class="binlabel-rot" x="283.25" y="206.00" text-anchor="end" transform="rotate(-45 283.25 206.00)">Queenstown</text>
    <rect x="367.50" y="187.58" width="166.50" height="10.42" rx="2" fill="#cfd2d6" stroke="#374151" stroke-width="0.6"/>
    <text class="binlabel-rot" x="450.75" y="206.00" text-anchor="end" transform="rotate(-45 450.75 206.00)"><tspan x="450.75" dy="0">__OTHER__</tspan><tspan x="450.75" dy="11">(Belfast, Boston)</tspan></text>
    <rect x="535.00" y="173.57" width="166.50" height="24.43" rx="2" fill="#5AD8A6" stroke="#374151" stroke-width="0.6"/>
    <text class="binlabel-rot" x="618.25" y="206.00" text-anchor="end" transform="rotate(-45 618.25 206.00)">Cherbourg</text>
    <rect x="712.00" y="174.74" width="56.00" height="23.26" rx="3" fill="url(#nan-hatch)" stroke="#5D7092" stroke-width="1" opacity="0.85"/>
    <text class="binlabel-rot" x="740.00" y="206.00" text-anchor="end" transform="rotate(-45 740.00 206.00)">NaN (17.3%)</text>
    <line x1="32" y1="198.00" x2="702" y2="198.00" stroke="#9ca3af" stroke-width="1"/>
    <line x1="32" y1="188.57" x2="768" y2="188.57" stroke="#ef4444" stroke-width="1" stroke-dasharray="5 3"/>
    <text class="threshold-label" x="764.00" y="184.57" text-anchor="end">min_freq = 0.07</text>
    </g>
    <line x1="32" y1="270.00" x2="768.00" y2="270.00" stroke="#d1d5db" stroke-width="1"/>
    <text class="strip-label" x="32" y="284.00" text-anchor="start">AgeGroup (ordinal)</text>
    <g opacity="1.00">
    <path d="M 99.00,322.54 L 233.00,303.87 L 367.00,313.64 L 501.00,309.36 L 635.00,299.46" fill="none" stroke="#9ca3af" stroke-width="1" stroke-dasharray="2 3"/>
    <circle cx="99.00" cy="322.54" r="3.5" fill="#5B8FF9" stroke="#374151" stroke-width="0.6"/>
    <circle cx="233.00" cy="303.87" r="3.5" fill="#5AD8A6" stroke="#374151" stroke-width="0.6"/>
    <circle cx="367.00" cy="313.64" r="3.5" fill="#F6BD16" stroke="#374151" stroke-width="0.6"/>
    <circle cx="501.00" cy="309.36" r="3.5" fill="#E8684A" stroke="#374151" stroke-width="0.6"/>
    <circle cx="635.00" cy="299.46" r="3.5" fill="#6DC8EC" stroke="#374151" stroke-width="0.6"/>
    <text class="strip-label" x="32.00" y="298.00" text-anchor="start">target rate &#8712; [0.02, 0.99]</text>
    <rect x="32.50" y="383.26" width="133.00" height="16.74" rx="2" fill="#5B8FF9" stroke="#374151" stroke-width="0.6"/>
    <text class="binlabel-rot" x="99.00" y="408.00" text-anchor="end" transform="rotate(-45 99.00 408.00)">child</text>
    <rect x="166.50" y="393.36" width="133.00" height="6.64" rx="2" fill="#5AD8A6" stroke="#f97316" stroke-width="2.0"/>
    <text class="binlabel-rot" x="233.00" y="408.00" text-anchor="end" transform="rotate(-45 233.00 408.00)">teen</text>
    <rect x="300.50" y="339.28" width="133.00" height="60.72" rx="2" fill="#F6BD16" stroke="#374151" stroke-width="0.6"/>
    <text class="binlabel-rot" x="367.00" y="408.00" text-anchor="end" transform="rotate(-45 367.00 408.00)">adult</text>
    <rect x="434.50" y="353.14" width="133.00" height="46.86" rx="2" fill="#E8684A" stroke="#374151" stroke-width="0.6"/>
    <text class="binlabel-rot" x="501.00" y="408.00" text-anchor="end" transform="rotate(-45 501.00 408.00)">middle_aged</text>
    <rect x="568.50" y="395.09" width="133.00" height="4.91" rx="2" fill="#6DC8EC" stroke="#f97316" stroke-width="2.0"/>
    <text class="binlabel-rot" x="635.00" y="408.00" text-anchor="end" transform="rotate(-45 635.00 408.00)">elderly</text>
    <path d="M 233.00,345.88 Q 300.00,335.32 361.00,345.88" fill="none" stroke="#f97316" stroke-width="1.5" stroke-dasharray="4 3" marker-end="url(#arrowhead)"/>
    <text class="merge-label" x="300.00" y="333.32" text-anchor="middle">teen → adult</text>
    <path d="M 635.00,345.88 Q 568.00,335.32 507.00,345.88" fill="none" stroke="#f97316" stroke-width="1.5" stroke-dasharray="4 3" marker-end="url(#arrowhead)"/>
    <text class="merge-label" x="568.00" y="333.32" text-anchor="middle">elderly → middle_aged</text>
    <rect x="712.00" y="391.53" width="56.00" height="8.47" rx="3" fill="url(#nan-hatch)" stroke="#5D7092" stroke-width="1" opacity="0.85"/>
    <text class="binlabel-rot" x="740.00" y="408.00" text-anchor="end" transform="rotate(-45 740.00 408.00)">NaN (5.9%)</text>
    <line x1="32" y1="400.00" x2="702" y2="400.00" stroke="#9ca3af" stroke-width="1"/>
    <line x1="32" y1="389.90" x2="768" y2="389.90" stroke="#ef4444" stroke-width="1" stroke-dasharray="5 3"/>
    <text class="threshold-label" x="764.00" y="385.90" text-anchor="end">min_freq = 0.07</text>
    </g>
  </g>
  <g class="stage stage-4">
    <text class="title" x="400.00" y="29.00" text-anchor="middle">Stage 4 / 4 &#8212; After QualitativeDiscretizer</text>
    <rect x="658" y="12" width="110" height="22" rx="11" fill="#111827"/>
    <text class="chip" x="713.00" y="27.00" text-anchor="middle">—</text>
    <text class="callout" x="400.00" y="56.00" text-anchor="middle">Port: 4 modalities sorted by target rate. AgeGroup: 3 groups, ordinal order preserved.</text>
    <g opacity="1.00">
    <path d="M 115.75,120.54 L 283.25,115.21 L 450.75,106.22 L 618.25,105.41" fill="none" stroke="#9ca3af" stroke-width="1" stroke-dasharray="2 3"/>
    <circle cx="115.75" cy="120.54" r="3.5" fill="#5B8FF9" stroke="#374151" stroke-width="0.6"/>
    <circle cx="283.25" cy="115.21" r="3.5" fill="#F6BD16" stroke="#374151" stroke-width="0.6"/>
    <circle cx="450.75" cy="106.22" r="3.5" fill="#cfd2d6" stroke="#374151" stroke-width="0.6"/>
    <circle cx="618.25" cy="105.41" r="3.5" fill="#5AD8A6" stroke="#374151" stroke-width="0.6"/>
    <text class="strip-label" x="32.00" y="96.00" text-anchor="start">target rate &#8712; [0.22, 0.84]</text>
    <rect x="32.50" y="137.28" width="166.50" height="60.72" rx="2" fill="#5B8FF9" stroke="#374151" stroke-width="0.6"/>
    <text class="binlabel-rot" x="115.75" y="206.00" text-anchor="end" transform="rotate(-45 115.75 206.00)">Southampton</text>
    <rect x="200.00" y="182.10" width="166.50" height="15.90" rx="2" fill="#F6BD16" stroke="#374151" stroke-width="0.6"/>
    <text class="binlabel-rot" x="283.25" y="206.00" text-anchor="end" transform="rotate(-45 283.25 206.00)">Queenstown</text>
    <rect x="367.50" y="187.58" width="166.50" height="10.42" rx="2" fill="#cfd2d6" stroke="#374151" stroke-width="0.6"/>
    <text class="binlabel-rot" x="450.75" y="206.00" text-anchor="end" transform="rotate(-45 450.75 206.00)"><tspan x="450.75" dy="0">__OTHER__</tspan><tspan x="450.75" dy="11">(Belfast, Boston)</tspan></text>
    <rect x="535.00" y="173.57" width="166.50" height="24.43" rx="2" fill="#5AD8A6" stroke="#374151" stroke-width="0.6"/>
    <text class="binlabel-rot" x="618.25" y="206.00" text-anchor="end" transform="rotate(-45 618.25 206.00)">Cherbourg</text>
    <rect x="712.00" y="174.74" width="56.00" height="23.26" rx="3" fill="url(#nan-hatch)" stroke="#5D7092" stroke-width="1" opacity="0.85"/>
    <text class="binlabel-rot" x="740.00" y="206.00" text-anchor="end" transform="rotate(-45 740.00 206.00)">NaN (17.3%)</text>
    <line x1="32" y1="198.00" x2="702" y2="198.00" stroke="#9ca3af" stroke-width="1"/>
    <line x1="32" y1="188.57" x2="768" y2="188.57" stroke="#ef4444" stroke-width="1" stroke-dasharray="5 3"/>
    <text class="threshold-label" x="764.00" y="184.57" text-anchor="end">min_freq = 0.07</text>
    </g>
    <line x1="32" y1="270.00" x2="768.00" y2="270.00" stroke="#d1d5db" stroke-width="1"/>
    <text class="strip-label" x="32" y="284.00" text-anchor="start">AgeGroup (ordinal)</text>
    <g opacity="1.00">
    <path d="M 99.00,322.54 L 300.00,312.67 L 568.00,308.42" fill="none" stroke="#9ca3af" stroke-width="1" stroke-dasharray="2 3"/>
    <circle cx="99.00" cy="322.54" r="3.5" fill="#5B8FF9" stroke="#374151" stroke-width="0.6"/>
    <circle cx="300.00" cy="312.67" r="3.5" fill="#F6BD16" stroke="#374151" stroke-width="0.6"/>
    <circle cx="568.00" cy="308.42" r="3.5" fill="#E8684A" stroke="#374151" stroke-width="0.6"/>
    <text class="strip-label" x="32.00" y="298.00" text-anchor="start">target rate &#8712; [0.02, 0.99]</text>
    <rect x="32.50" y="383.26" width="133.00" height="16.74" rx="2" fill="#5B8FF9" stroke="#374151" stroke-width="0.6"/>
    <text class="binlabel-rot" x="99.00" y="408.00" text-anchor="end" transform="rotate(-45 99.00 408.00)">child</text>
    <rect x="166.50" y="332.64" width="267.00" height="67.36" rx="2" fill="#F6BD16" stroke="#374151" stroke-width="0.6"/>
    <text class="binlabel-rot" x="300.00" y="408.00" text-anchor="end" transform="rotate(-45 300.00 408.00)">teen to adult</text>
    <rect x="434.50" y="348.23" width="267.00" height="51.77" rx="2" fill="#E8684A" stroke="#374151" stroke-width="0.6"/>
    <text class="binlabel-rot" x="568.00" y="408.00" text-anchor="end" transform="rotate(-45 568.00 408.00)">middle_aged to elderly</text>
    <rect x="712.00" y="391.53" width="56.00" height="8.47" rx="3" fill="url(#nan-hatch)" stroke="#5D7092" stroke-width="1" opacity="0.85"/>
    <text class="binlabel-rot" x="740.00" y="408.00" text-anchor="end" transform="rotate(-45 740.00 408.00)">NaN (5.9%)</text>
    <line x1="32" y1="400.00" x2="702" y2="400.00" stroke="#9ca3af" stroke-width="1"/>
    <line x1="32" y1="389.90" x2="768" y2="389.90" stroke="#ef4444" stroke-width="1" stroke-dasharray="5 3"/>
    <text class="threshold-label" x="764.00" y="385.90" text-anchor="end">min_freq = 0.07</text>
    </g>
  </g>
</svg>
