<?xml version="1.0" encoding="UTF-8"?>
<svg xmlns="http://www.w3.org/2000/svg" viewBox="0 0 800 340"
     width="800" height="340" role="img"
     aria-label="AutoCarver discretizer animation">
  <defs>
    <pattern id="nan-hatch" patternUnits="userSpaceOnUse" width="6" height="6"
             patternTransform="rotate(45)">
      <rect width="6" height="6" fill="#e5e7eb"/>
      <line x1="0" y1="0" x2="0" y2="6" stroke="#5D7092" stroke-width="1.2"/>
    </pattern>
    <marker id="arrowhead" viewBox="0 0 10 10" refX="9" refY="5"
            markerWidth="6" markerHeight="6" orient="auto-start-reverse">
      <path d="M 0 0 L 10 5 L 0 10 Z" fill="#f97316"/>
    </marker>
  </defs>
  <style>
text { font-family: -apple-system, "Segoe UI", "Helvetica Neue", Arial, sans-serif; }
.title { font-size: 14px; font-weight: 600; fill: #111827; }
.callout { font-size: 11px; fill: #4b5563; }
.chip { font-family: ui-monospace, "SF Mono", Menlo, monospace; font-size: 12px; fill: #f9fafb; }
.binlabel { font-size: 10px; fill: #374151; }
.binlabel-rot { font-family: ui-monospace, "SF Mono", Menlo, monospace; font-size: 10px; fill: #374151; }
.tick-label { font-family: ui-monospace, "SF Mono", Menlo, monospace; font-size: 9px; fill: #6b7280; }
.overrep-label { font-size: 11px; fill: #c2410c; font-weight: 600; }
.merge-label { font-size: 9px; fill: #c2410c; font-weight: 600; }
.strip-label { font-size: 9px; fill: #6b7280; font-style: italic; }
.threshold-label {
    font-family: ui-monospace, "SF Mono", Menlo, monospace;
    font-size: 10px; fill: #ef4444; font-weight: 600;
}

@keyframes show-0 {
  0% { opacity: 1; }
  15.17% { opacity: 1; }
  16.67% { opacity: 0; }
  100% { opacity: 0; }
}
.stage-0 { opacity: 0; animation: show-0 30000ms infinite; }
@keyframes show-1 {
  0% { opacity: 0; }
  16.67% { opacity: 0; }
  18.17% { opacity: 1; }
  31.83% { opacity: 1; }
  33.33% { opacity: 0; }
  100% { opacity: 0; }
}
.stage-1 { opacity: 0; animation: show-1 30000ms infinite; }
@keyframes show-2 {
  0% { opacity: 0; }
  33.33% { opacity: 0; }
  34.83% { opacity: 1; }
  48.50% { opacity: 1; }
  50.00% { opacity: 0; }
  100% { opacity: 0; }
}
.stage-2 { opacity: 0; animation: show-2 30000ms infinite; }
@keyframes show-3 {
  0% { opacity: 0; }
  50.00% { opacity: 0; }
  51.50% { opacity: 1; }
  65.17% { opacity: 1; }
  66.67% { opacity: 0; }
  100% { opacity: 0; }
}
.stage-3 { opacity: 0; animation: show-3 30000ms infinite; }
@keyframes show-4 {
  0% { opacity: 0; }
  66.67% { opacity: 0; }
  68.17% { opacity: 1; }
  100% { opacity: 1; }
}
.stage-4 { opacity: 0; animation: show-4 30000ms infinite; }
  </style>
  <g class="stage stage-0">
    <text class="title" x="400.00" y="29.00" text-anchor="middle">Stage 0 / 4 &#8212; Raw feature</text>
    <rect x="658" y="12" width="110" height="22" rx="11" fill="#111827"/>
    <text class="chip" x="713.00" y="27.00" text-anchor="middle">—</text>
    <text class="callout" x="400.00" y="56.00" text-anchor="middle">Raw continuous Fare (synthetic, n=1500) with multiple class-fare spikes (0, 7.25, 13, 26.55)</text>
    <text class="callout" x="400.00" y="70.00" text-anchor="middle">on a lognormal body.</text>
    <path d="M 32.00,248.00 L 32.00,116.29 L 36.21,137.63 L 40.43,182.96 L 44.64,220.76 L 48.86,239.28 L 53.07,244.86 L 57.28,245.46 L 61.50,244.55 L 65.71,243.03 L 69.92,241.44 L 74.14,240.18 L 78.35,239.14 L 82.57,237.72 L 86.78,235.53 L 90.99,232.81 L 95.21,230.40 L 99.42,229.07 L 103.64,228.91 L 107.85,229.34 L 112.06,229.92 L 116.28,230.85 L 120.49,232.46 L 124.70,234.42 L 128.92,235.75 L 133.13,235.82 L 137.35,235.19 L 141.56,235.06 L 145.77,235.68 L 149.99,235.22 L 154.20,228.42 L 158.42,205.73 L 162.63,161.04 L 166.84,109.71 L 171.06,88.00 L 175.27,114.73 L 179.48,166.70 L 183.70,209.20 L 187.91,230.67 L 192.13,238.13 L 196.34,239.74 L 200.55,239.58 L 204.77,239.37 L 208.98,239.59 L 213.19,240.10 L 217.41,240.73 L 221.62,241.39 L 225.84,241.92 L 230.05,242.24 L 234.26,242.41 L 238.48,242.49 L 242.69,242.35 L 246.91,241.92 L 251.12,241.45 L 255.33,241.28 L 259.55,240.57 L 263.76,235.29 L 267.97,216.81 L 272.19,177.89 L 276.40,129.40 L 280.62,104.19 L 284.83,124.16 L 289.04,171.69 L 293.26,213.13 L 297.47,234.62 L 301.69,242.04 L 305.90,243.83 L 310.11,244.03 L 314.33,243.85 L 318.54,243.75 L 322.75,244.06 L 326.97,244.77 L 331.18,245.48 L 335.40,245.77 L 339.61,245.60 L 343.82,245.18 L 348.04,244.66 L 352.25,244.13 L 356.47,243.93 L 360.68,244.40 L 364.89,245.28 L 369.11,246.05 L 373.32,246.55 L 377.53,246.93 L 381.75,247.22 L 385.96,247.37 L 390.18,247.43 L 394.39,247.54 L 398.60,247.68 L 402.82,247.72 L 407.03,247.63 L 411.25,247.49 L 415.46,247.42 L 419.67,247.33 L 423.89,247.06 L 428.10,246.63 L 432.31,246.31 L 436.53,246.29 L 440.74,246.48 L 444.96,246.59 L 449.17,246.50 L 453.38,246.34 L 457.60,246.34 L 461.81,246.61 L 466.03,247.06 L 470.24,247.48 L 474.45,247.65 L 478.67,247.50 L 482.88,247.09 L 487.09,246.65 L 491.31,246.36 L 495.52,246.24 L 499.74,246.12 L 503.95,246.05 L 508.16,246.20 L 512.38,246.54 L 516.59,246.49 L 520.81,243.86 L 525.02,232.54 L 529.23,202.66 L 533.45,152.89 L 537.66,107.23 L 541.87,101.40 L 546.09,140.52 L 550.30,192.26 L 554.52,227.16 L 558.73,241.84 L 562.94,245.93 L 567.16,246.80 L 571.37,247.19 L 575.58,247.56 L 579.80,247.83 L 584.01,247.95 L 588.23,247.99 L 592.44,248.00 L 596.65,247.99 L 600.87,247.96 L 605.08,247.86 L 609.30,247.70 L 613.51,247.54 L 617.72,247.51 L 621.94,247.63 L 626.15,247.78 L 630.36,247.81 L 634.58,247.61 L 638.79,247.14 L 643.01,246.58 L 647.22,246.27 L 651.43,246.41 L 655.65,246.85 L 659.86,247.33 L 664.08,247.66 L 668.29,247.79 L 672.50,247.73 L 676.72,247.58 L 680.93,247.50 L 685.14,247.58 L 689.36,247.75 L 693.57,247.90 L 697.79,247.97 L 702.00,247.99 L 702.00,248.00 Z" fill="#cfd2d6" stroke="#6b7280" stroke-width="1.2" stroke-linejoin="round"/>
    <line x1="32.00" y1="248.00" x2="32.00" y2="252.00" stroke="#6b7280" stroke-width="1"/>
    <text class="tick-label" x="32.00" y="264.00" text-anchor="middle">0</text>
    <line x1="127.71" y1="248.00" x2="127.71" y2="252.00" stroke="#6b7280" stroke-width="1"/>
    <text class="tick-label" x="127.71" y="264.00" text-anchor="middle">5</text>
    <line x1="223.43" y1="248.00" x2="223.43" y2="252.00" stroke="#6b7280" stroke-width="1"/>
    <text class="tick-label" x="223.43" y="264.00" text-anchor="middle">10</text>
    <line x1="319.14" y1="248.00" x2="319.14" y2="252.00" stroke="#6b7280" stroke-width="1"/>
    <text class="tick-label" x="319.14" y="264.00" text-anchor="middle">15</text>
    <line x1="414.86" y1="248.00" x2="414.86" y2="252.00" stroke="#6b7280" stroke-width="1"/>
    <text class="tick-label" x="414.86" y="264.00" text-anchor="middle">20</text>
    <line x1="510.57" y1="248.00" x2="510.57" y2="252.00" stroke="#6b7280" stroke-width="1"/>
    <text class="tick-label" x="510.57" y="264.00" text-anchor="middle">25</text>
    <line x1="606.29" y1="248.00" x2="606.29" y2="252.00" stroke="#6b7280" stroke-width="1"/>
    <text class="tick-label" x="606.29" y="264.00" text-anchor="middle">30</text>
    <line x1="702.00" y1="248.00" x2="702.00" y2="252.00" stroke="#6b7280" stroke-width="1"/>
    <text class="tick-label" x="702.00" y="264.00" text-anchor="middle">35</text>
    <rect x="712.00" y="237.49" width="56.00" height="10.51" rx="3" fill="url(#nan-hatch)" stroke="#5D7092" stroke-width="1" opacity="0.85"/>
    <text class="binlabel-rot" x="740.00" y="256.00" text-anchor="end" transform="rotate(-45 740.00 256.00)">NaN (2.5%)</text>
    <line x1="32" y1="248.00" x2="702" y2="248.00" stroke="#9ca3af" stroke-width="1"/>
    <line x1="32" y1="218.97" x2="768" y2="218.97" stroke="#ef4444" stroke-width="1" stroke-dasharray="5 3"/>
    <text class="threshold-label" x="764.00" y="214.97" text-anchor="end">min_freq = 0.07</text>
  </g>
  <g class="stage stage-1">
    <text class="title" x="400.00" y="29.00" text-anchor="middle">Stage 1 / 4 &#8212; Over-represented values detected</text>
    <rect x="658" y="12" width="110" height="22" rx="11" fill="#111827"/>
    <text class="chip" x="713.00" y="27.00" text-anchor="middle">—</text>
    <text class="callout" x="400.00" y="56.00" text-anchor="middle">ContinuousDiscretizer flags values occurring ≥ 1/q (0.07) as their own singleton bin — all</text>
    <text class="callout" x="400.00" y="70.00" text-anchor="middle">four class-fare spikes qualify.</text>
    <path d="M 32.00,248.00 L 32.00,116.29 L 36.21,137.63 L 40.43,182.96 L 44.64,220.76 L 48.86,239.28 L 53.07,244.86 L 57.28,245.46 L 61.50,244.55 L 65.71,243.03 L 69.92,241.44 L 74.14,240.18 L 78.35,239.14 L 82.57,237.72 L 86.78,235.53 L 90.99,232.81 L 95.21,230.40 L 99.42,229.07 L 103.64,228.91 L 107.85,229.34 L 112.06,229.92 L 116.28,230.85 L 120.49,232.46 L 124.70,234.42 L 128.92,235.75 L 133.13,235.82 L 137.35,235.19 L 141.56,235.06 L 145.77,235.68 L 149.99,235.22 L 154.20,228.42 L 158.42,205.73 L 162.63,161.04 L 166.84,109.71 L 171.06,88.00 L 175.27,114.73 L 179.48,166.70 L 183.70,209.20 L 187.91,230.67 L 192.13,238.13 L 196.34,239.74 L 200.55,239.58 L 204.77,239.37 L 208.98,239.59 L 213.19,240.10 L 217.41,240.73 L 221.62,241.39 L 225.84,241.92 L 230.05,242.24 L 234.26,242.41 L 238.48,242.49 L 242.69,242.35 L 246.91,241.92 L 251.12,241.45 L 255.33,241.28 L 259.55,240.57 L 263.76,235.29 L 267.97,216.81 L 272.19,177.89 L 276.40,129.40 L 280.62,104.19 L 284.83,124.16 L 289.04,171.69 L 293.26,213.13 L 297.47,234.62 L 301.69,242.04 L 305.90,243.83 L 310.11,244.03 L 314.33,243.85 L 318.54,243.75 L 322.75,244.06 L 326.97,244.77 L 331.18,245.48 L 335.40,245.77 L 339.61,245.60 L 343.82,245.18 L 348.04,244.66 L 352.25,244.13 L 356.47,243.93 L 360.68,244.40 L 364.89,245.28 L 369.11,246.05 L 373.32,246.55 L 377.53,246.93 L 381.75,247.22 L 385.96,247.37 L 390.18,247.43 L 394.39,247.54 L 398.60,247.68 L 402.82,247.72 L 407.03,247.63 L 411.25,247.49 L 415.46,247.42 L 419.67,247.33 L 423.89,247.06 L 428.10,246.63 L 432.31,246.31 L 436.53,246.29 L 440.74,246.48 L 444.96,246.59 L 449.17,246.50 L 453.38,246.34 L 457.60,246.34 L 461.81,246.61 L 466.03,247.06 L 470.24,247.48 L 474.45,247.65 L 478.67,247.50 L 482.88,247.09 L 487.09,246.65 L 491.31,246.36 L 495.52,246.24 L 499.74,246.12 L 503.95,246.05 L 508.16,246.20 L 512.38,246.54 L 516.59,246.49 L 520.81,243.86 L 525.02,232.54 L 529.23,202.66 L 533.45,152.89 L 537.66,107.23 L 541.87,101.40 L 546.09,140.52 L 550.30,192.26 L 554.52,227.16 L 558.73,241.84 L 562.94,245.93 L 567.16,246.80 L 571.37,247.19 L 575.58,247.56 L 579.80,247.83 L 584.01,247.95 L 588.23,247.99 L 592.44,248.00 L 596.65,247.99 L 600.87,247.96 L 605.08,247.86 L 609.30,247.70 L 613.51,247.54 L 617.72,247.51 L 621.94,247.63 L 626.15,247.78 L 630.36,247.81 L 634.58,247.61 L 638.79,247.14 L 643.01,246.58 L 647.22,246.27 L 651.43,246.41 L 655.65,246.85 L 659.86,247.33 L 664.08,247.66 L 668.29,247.79 L 672.50,247.73 L 676.72,247.58 L 680.93,247.50 L 685.14,247.58 L 689.36,247.75 L 693.57,247.90 L 697.79,247.97 L 702.00,247.99 L 702.00,248.00 Z" fill="#cfd2d6" stroke="#6b7280" stroke-width="1.2" stroke-linejoin="round"/>
    <line x1="32.00" y1="84.00" x2="32.00" y2="248.00" stroke="#f97316" stroke-width="2" stroke-dasharray="5 3"/>
    <text class="overrep-label" x="38.00" y="100.00" text-anchor="start">Fare = 0</text>
    <line x1="170.79" y1="84.00" x2="170.79" y2="248.00" stroke="#f97316" stroke-width="2" stroke-dasharray="5 3"/>
    <text class="overrep-label" x="176.79" y="100.00" text-anchor="start">Fare = 7.25</text>
    <line x1="280.86" y1="84.00" x2="280.86" y2="248.00" stroke="#f97316" stroke-width="2" stroke-dasharray="5 3"/>
    <text class="overrep-label" x="286.86" y="100.00" text-anchor="start">Fare = 13</text>
    <line x1="540.24" y1="84.00" x2="540.24" y2="248.00" stroke="#f97316" stroke-width="2" stroke-dasharray="5 3"/>
    <text class="overrep-label" x="546.24" y="100.00" text-anchor="start">Fare = 26.55</text>
    <line x1="32.00" y1="248.00" x2="32.00" y2="252.00" stroke="#6b7280" stroke-width="1"/>
    <text class="tick-label" x="32.00" y="264.00" text-anchor="middle">0</text>
    <line x1="127.71" y1="248.00" x2="127.71" y2="252.00" stroke="#6b7280" stroke-width="1"/>
    <text class="tick-label" x="127.71" y="264.00" text-anchor="middle">5</text>
    <line x1="223.43" y1="248.00" x2="223.43" y2="252.00" stroke="#6b7280" stroke-width="1"/>
    <text class="tick-label" x="223.43" y="264.00" text-anchor="middle">10</text>
    <line x1="319.14" y1="248.00" x2="319.14" y2="252.00" stroke="#6b7280" stroke-width="1"/>
    <text class="tick-label" x="319.14" y="264.00" text-anchor="middle">15</text>
    <line x1="414.86" y1="248.00" x2="414.86" y2="252.00" stroke="#6b7280" stroke-width="1"/>
    <text class="tick-label" x="414.86" y="264.00" text-anchor="middle">20</text>
    <line x1="510.57" y1="248.00" x2="510.57" y2="252.00" stroke="#6b7280" stroke-width="1"/>
    <text class="tick-label" x="510.57" y="264.00" text-anchor="middle">25</text>
    <line x1="606.29" y1="248.00" x2="606.29" y2="252.00" stroke="#6b7280" stroke-width="1"/>
    <text class="tick-label" x="606.29" y="264.00" text-anchor="middle">30</text>
    <line x1="702.00" y1="248.00" x2="702.00" y2="252.00" stroke="#6b7280" stroke-width="1"/>
    <text class="tick-label" x="702.00" y="264.00" text-anchor="middle">35</text>
    <rect x="712.00" y="237.49" width="56.00" height="10.51" rx="3" fill="url(#nan-hatch)" stroke="#5D7092" stroke-width="1" opacity="0.85"/>
    <text class="binlabel-rot" x="740.00" y="256.00" text-anchor="end" transform="rotate(-45 740.00 256.00)">NaN (2.5%)</text>
    <line x1="32" y1="248.00" x2="702" y2="248.00" stroke="#9ca3af" stroke-width="1"/>
    <line x1="32" y1="218.97" x2="768" y2="218.97" stroke="#ef4444" stroke-width="1" stroke-dasharray="5 3"/>
    <text class="threshold-label" x="764.00" y="214.97" text-anchor="end">min_freq = 0.07</text>
  </g>
  <g class="stage stage-2">
    <text class="title" x="400.00" y="29.00" text-anchor="middle">Stage 2 / 4 &#8212; After ContinuousDiscretizer</text>
    <rect x="658" y="12" width="110" height="22" rx="11" fill="#111827"/>
    <text class="chip" x="713.00" y="27.00" text-anchor="middle">—</text>
    <text class="callout" x="400.00" y="56.00" text-anchor="middle">8 CD bins: 4 thin spike singletons + quantile bins. Those with Wilson upper bound below</text>
    <text class="callout" x="400.00" y="70.00" text-anchor="middle">min_freq are orange.</text>
    <rect x="32.50" y="174.74" width="5.70" height="73.26" rx="2" fill="#5B8FF9" stroke="#374151" stroke-width="0.6"/>
    <text class="binlabel-rot" x="35.35" y="256.00" text-anchor="end" transform="rotate(-45 35.35 256.00)">≤ 0</text>
    <rect x="39.20" y="204.87" width="129.76" height="43.13" rx="2" fill="#5AD8A6" stroke="#374151" stroke-width="0.6"/>
    <text class="binlabel-rot" x="104.08" y="256.00" text-anchor="end" transform="rotate(-45 104.08 256.00)">(0, 7.18]</text>
    <rect x="169.96" y="164.23" width="5.70" height="83.77" rx="2" fill="#F6BD16" stroke="#374151" stroke-width="0.6"/>
    <text class="binlabel-rot" x="172.81" y="256.00" text-anchor="end" transform="rotate(-45 172.81 256.00)">(7.18, 7.25]</text>
    <rect x="176.66" y="224.22" width="95.50" height="23.78" rx="2" fill="#E8684A" stroke="#374151" stroke-width="0.6"/>
    <text class="binlabel-rot" x="224.42" y="256.00" text-anchor="end" transform="rotate(-45 224.42 256.00)">(7.25, 12.57]</text>
    <rect x="273.17" y="170.04" width="5.70" height="77.96" rx="2" fill="#6DC8EC" stroke="#374151" stroke-width="0.6"/>
    <text class="binlabel-rot" x="276.02" y="256.00" text-anchor="end" transform="rotate(-45 276.02 256.00)">(12.57, 13]</text>
    <rect x="281.36" y="231.96" width="246.41" height="16.04" rx="2" fill="#9270CA" stroke="#f97316" stroke-width="2.0"/>
    <text class="binlabel-rot" x="404.56" y="256.00" text-anchor="end" transform="rotate(-45 404.56 256.00)">(13, 25.92]</text>
    <rect x="528.76" y="164.51" width="10.98" height="83.49" rx="2" fill="#5B8FF9" stroke="#374151" stroke-width="0.6"/>
    <text class="binlabel-rot" x="534.25" y="256.00" text-anchor="end" transform="rotate(-45 534.25 256.00)">(25.92, 26.55]</text>
    <rect x="540.74" y="245.24" width="139.71" height="2.76" rx="2" fill="#5AD8A6" stroke="#f97316" stroke-width="2.0"/>
    <text class="binlabel-rot" x="610.60" y="256.00" text-anchor="end" transform="rotate(-45 610.60 256.00)">(26.55, 33.9]</text>
    <path d="M 35.35,139.22 L 104.08,136.86 L 172.81,130.72 L 224.42,125.10 L 276.02,117.90 L 404.56,108.76 L 534.25,97.54 L 610.60,94.00" fill="none" stroke="#9ca3af" stroke-width="1" stroke-dasharray="2 3"/>
    <circle cx="35.35" cy="139.22" r="3.5" fill="#5B8FF9" stroke="#374151" stroke-width="0.6"/>
    <circle cx="104.08" cy="136.86" r="3.5" fill="#5AD8A6" stroke="#374151" stroke-width="0.6"/>
    <circle cx="172.81" cy="130.72" r="3.5" fill="#F6BD16" stroke="#374151" stroke-width="0.6"/>
    <circle cx="224.42" cy="125.10" r="3.5" fill="#E8684A" stroke="#374151" stroke-width="0.6"/>
    <circle cx="276.02" cy="117.90" r="3.5" fill="#6DC8EC" stroke="#374151" stroke-width="0.6"/>
    <circle cx="404.56" cy="108.76" r="3.5" fill="#9270CA" stroke="#374151" stroke-width="0.6"/>
    <circle cx="534.25" cy="97.54" r="3.5" fill="#5B8FF9" stroke="#374151" stroke-width="0.6"/>
    <circle cx="610.60" cy="94.00" r="3.5" fill="#5AD8A6" stroke="#374151" stroke-width="0.6"/>
    <text class="strip-label" x="32.00" y="96.00" text-anchor="start">target rate &#8712; [0.03, 1.00]</text>
    <rect x="712.00" y="237.49" width="56.00" height="10.51" rx="3" fill="url(#nan-hatch)" stroke="#5D7092" stroke-width="1" opacity="0.85"/>
    <text class="binlabel-rot" x="740.00" y="256.00" text-anchor="end" transform="rotate(-45 740.00 256.00)">NaN (2.5%)</text>
    <line x1="32" y1="248.00" x2="702" y2="248.00" stroke="#9ca3af" stroke-width="1"/>
    <line x1="32" y1="218.97" x2="768" y2="218.97" stroke="#ef4444" stroke-width="1" stroke-dasharray="5 3"/>
    <text class="threshold-label" x="764.00" y="214.97" text-anchor="end">min_freq = 0.07</text>
  </g>
  <g class="stage stage-3">
    <text class="title" x="400.00" y="29.00" text-anchor="middle">Stage 3 / 4 &#8212; Merge direction chosen</text>
    <rect x="658" y="12" width="110" height="22" rx="11" fill="#111827"/>
    <text class="chip" x="713.00" y="27.00" text-anchor="middle">—</text>
    <text class="callout" x="400.00" y="56.00" text-anchor="middle">OrdinalDiscretizer merges each rare bin into its dominant neighbour — arrows point from the</text>
    <text class="callout" x="400.00" y="70.00" text-anchor="middle">sparse bin to the bin that absorbs it.</text>
    <rect x="32.50" y="174.74" width="5.70" height="73.26" rx="2" fill="#5B8FF9" stroke="#374151" stroke-width="0.6"/>
    <text class="binlabel-rot" x="35.35" y="256.00" text-anchor="end" transform="rotate(-45 35.35 256.00)">≤ 0</text>
    <rect x="39.20" y="204.87" width="129.76" height="43.13" rx="2" fill="#5AD8A6" stroke="#374151" stroke-width="0.6"/>
    <text class="binlabel-rot" x="104.08" y="256.00" text-anchor="end" transform="rotate(-45 104.08 256.00)">(0, 7.18]</text>
    <rect x="169.96" y="164.23" width="5.70" height="83.77" rx="2" fill="#F6BD16" stroke="#374151" stroke-width="0.6"/>
    <text class="binlabel-rot" x="172.81" y="256.00" text-anchor="end" transform="rotate(-45 172.81 256.00)">(7.18, 7.25]</text>
    <rect x="176.66" y="224.22" width="95.50" height="23.78" rx="2" fill="#E8684A" stroke="#374151" stroke-width="0.6"/>
    <text class="binlabel-rot" x="224.42" y="256.00" text-anchor="end" transform="rotate(-45 224.42 256.00)">(7.25, 12.57]</text>
    <rect x="273.17" y="170.04" width="5.70" height="77.96" rx="2" fill="#6DC8EC" stroke="#374151" stroke-width="0.6"/>
    <text class="binlabel-rot" x="276.02" y="256.00" text-anchor="end" transform="rotate(-45 276.02 256.00)">(12.57, 13]</text>
    <rect x="281.36" y="231.96" width="246.41" height="16.04" rx="2" fill="#9270CA" stroke="#f97316" stroke-width="2.0"/>
    <text class="binlabel-rot" x="404.56" y="256.00" text-anchor="end" transform="rotate(-45 404.56 256.00)">(13, 25.92]</text>
    <rect x="528.76" y="164.51" width="10.98" height="83.49" rx="2" fill="#5B8FF9" stroke="#374151" stroke-width="0.6"/>
    <text class="binlabel-rot" x="534.25" y="256.00" text-anchor="end" transform="rotate(-45 534.25 256.00)">(25.92, 26.55]</text>
    <rect x="540.74" y="245.24" width="139.71" height="2.76" rx="2" fill="#5AD8A6" stroke="#f97316" stroke-width="2.0"/>
    <text class="binlabel-rot" x="610.60" y="256.00" text-anchor="end" transform="rotate(-45 610.60 256.00)">(26.55, 33.9]</text>
    <path d="M 35.35,139.22 L 104.08,136.86 L 172.81,130.72 L 224.42,125.10 L 276.02,117.90 L 404.56,108.76 L 534.25,97.54 L 610.60,94.00" fill="none" stroke="#9ca3af" stroke-width="1" stroke-dasharray="2 3"/>
    <circle cx="35.35" cy="139.22" r="3.5" fill="#5B8FF9" stroke="#374151" stroke-width="0.6"/>
    <circle cx="104.08" cy="136.86" r="3.5" fill="#5AD8A6" stroke="#374151" stroke-width="0.6"/>
    <circle cx="172.81" cy="130.72" r="3.5" fill="#F6BD16" stroke="#374151" stroke-width="0.6"/>
    <circle cx="224.42" cy="125.10" r="3.5" fill="#E8684A" stroke="#374151" stroke-width="0.6"/>
    <circle cx="276.02" cy="117.90" r="3.5" fill="#6DC8EC" stroke="#374151" stroke-width="0.6"/>
    <circle cx="404.56" cy="108.76" r="3.5" fill="#9270CA" stroke="#374151" stroke-width="0.6"/>
    <circle cx="534.25" cy="97.54" r="3.5" fill="#5B8FF9" stroke="#374151" stroke-width="0.6"/>
    <circle cx="610.60" cy="94.00" r="3.5" fill="#5AD8A6" stroke="#374151" stroke-width="0.6"/>
    <text class="strip-label" x="32.00" y="96.00" text-anchor="start">target rate &#8712; [0.03, 1.00]</text>
    <path d="M 404.56,170.92 Q 340.29,155.88 282.02,170.92" fill="none" stroke="#f97316" stroke-width="1.5" stroke-dasharray="4 3" marker-end="url(#arrowhead)"/>
    <text class="merge-label" x="340.29" y="153.88" text-anchor="middle">(13, 25.92]</text>
    <path d="M 610.60,170.92 Q 572.42,155.88 540.25,170.92" fill="none" stroke="#f97316" stroke-width="1.5" stroke-dasharray="4 3" marker-end="url(#arrowhead)"/>
    <text class="merge-label" x="572.42" y="153.88" text-anchor="middle">(26.55, 33.9]</text>
    <rect x="712.00" y="237.49" width="56.00" height="10.51" rx="3" fill="url(#nan-hatch)" stroke="#5D7092" stroke-width="1" opacity="0.85"/>
    <text class="binlabel-rot" x="740.00" y="256.00" text-anchor="end" transform="rotate(-45 740.00 256.00)">NaN (2.5%)</text>
    <line x1="32" y1="248.00" x2="702" y2="248.00" stroke="#9ca3af" stroke-width="1"/>
    <line x1="32" y1="218.97" x2="768" y2="218.97" stroke="#ef4444" stroke-width="1" stroke-dasharray="5 3"/>
    <text class="threshold-label" x="764.00" y="214.97" text-anchor="end">min_freq = 0.07</text>
  </g>
  <g class="stage stage-4">
    <text class="title" x="400.00" y="29.00" text-anchor="middle">Stage 4 / 4 &#8212; After QuantitativeDiscretizer</text>
    <rect x="658" y="12" width="110" height="22" rx="11" fill="#111827"/>
    <text class="chip" x="713.00" y="27.00" text-anchor="middle">—</text>
    <text class="callout" x="400.00" y="56.00" text-anchor="middle">6 bins after CD + OD. Each merged bar spans its absorbed Stage-2 slots and keeps the dominant</text>
    <text class="callout" x="400.00" y="70.00" text-anchor="middle">bin's colour.</text>
    <rect x="32.50" y="174.74" width="5.70" height="73.26" rx="2" fill="#5B8FF9" stroke="#374151" stroke-width="0.6"/>
    <text class="binlabel-rot" x="35.35" y="256.00" text-anchor="end" transform="rotate(-45 35.35 256.00)">≤ 0</text>
    <rect x="39.20" y="204.87" width="129.76" height="43.13" rx="2" fill="#5AD8A6" stroke="#374151" stroke-width="0.6"/>
    <text class="binlabel-rot" x="104.08" y="256.00" text-anchor="end" transform="rotate(-45 104.08 256.00)">(0, 7.18]</text>
    <rect x="169.96" y="164.23" width="5.70" height="83.77" rx="2" fill="#F6BD16" stroke="#374151" stroke-width="0.6"/>
    <text class="binlabel-rot" x="172.81" y="256.00" text-anchor="end" transform="rotate(-45 172.81 256.00)">(7.18, 7.25]</text>
    <rect x="176.66" y="224.22" width="95.50" height="23.78" rx="2" fill="#E8684A" stroke="#374151" stroke-width="0.6"/>
    <text class="binlabel-rot" x="224.42" y="256.00" text-anchor="end" transform="rotate(-45 224.42 256.00)">(7.25, 12.57]</text>
    <rect x="273.17" y="154.00" width="254.59" height="94.00" rx="2" fill="#6DC8EC" stroke="#374151" stroke-width="0.6"/>
    <text class="binlabel-rot" x="400.47" y="256.00" text-anchor="end" transform="rotate(-45 400.47 256.00)">(12.57, 25.92]</text>
    <rect x="528.76" y="161.74" width="172.74" height="86.26" rx="2" fill="#5B8FF9" stroke="#374151" stroke-width="0.6"/>
    <text class="binlabel-rot" x="615.13" y="256.00" text-anchor="end" transform="rotate(-45 615.13 256.00)">&gt; 25.92</text>
    <path d="M 35.35,139.22 L 104.08,136.86 L 172.81,130.72 L 224.42,125.10 L 400.47,116.34 L 615.13,97.43" fill="none" stroke="#9ca3af" stroke-width="1" stroke-dasharray="2 3"/>
    <circle cx="35.35" cy="139.22" r="3.5" fill="#5B8FF9" stroke="#374151" stroke-width="0.6"/>
    <circle cx="104.08" cy="136.86" r="3.5" fill="#5AD8A6" stroke="#374151" stroke-width="0.6"/>
    <circle cx="172.81" cy="130.72" r="3.5" fill="#F6BD16" stroke="#374151" stroke-width="0.6"/>
    <circle cx="224.42" cy="125.10" r="3.5" fill="#E8684A" stroke="#374151" stroke-width="0.6"/>
    <circle cx="400.47" cy="116.34" r="3.5" fill="#6DC8EC" stroke="#374151" stroke-width="0.6"/>
    <circle cx="615.13" cy="97.43" r="3.5" fill="#5B8FF9" stroke="#374151" stroke-width="0.6"/>
    <text class="strip-label" x="32.00" y="96.00" text-anchor="start">target rate &#8712; [0.03, 1.00]</text>
    <rect x="712.00" y="237.49" width="56.00" height="10.51" rx="3" fill="url(#nan-hatch)" stroke="#5D7092" stroke-width="1" opacity="0.85"/>
    <text class="binlabel-rot" x="740.00" y="256.00" text-anchor="end" transform="rotate(-45 740.00 256.00)">NaN (2.5%)</text>
    <line x1="32" y1="248.00" x2="702" y2="248.00" stroke="#9ca3af" stroke-width="1"/>
    <line x1="32" y1="218.97" x2="768" y2="218.97" stroke="#ef4444" stroke-width="1" stroke-dasharray="5 3"/>
    <text class="threshold-label" x="764.00" y="214.97" text-anchor="end">min_freq = 0.07</text>
  </g>
</svg>
